# xmcd CD database file
#
# Track frame offsets:
#	150
#	40950
#	64050
#	85425
#	110168
#	143768
#	165818
#
# Disc length: 2525 seconds
#
# Revision: 0
# Processed by: cddbd v1.5.1PL0 Copyright (c) Steve Scherf et al.
# Submitted via: CDex 1.51
#
DISCID=5909db07
DTITLE=Kanji Ohta - If You Could See Me Now
DYEAR=2002
DGENRE=Jazz
TTITLE0=If You Could See Me Now
TTITLE1=No Name Blues
TTITLE2=Yesterdays
TTITLE3=Choose Now
TTITLE4=All The Thing You Are
TTITLE5=Tenperance
TTITLE6=Out Of Nowhere
EXTD=YEAR: 2002
EXTT0=
EXTT1=
EXTT2=
EXTT3=
EXTT4=
EXTT5=
EXTT6=
PLAYORDER=
